<svg xmlns="http://www.w3.org/2000/svg" xmlns:xlink="http://www.w3.org/1999/xlink"><symbol id="burger-button"><path d="M1.137 0c-.15-.003-.3.021-.439.07C.558.12.432.195.326.288A.98.98 0 0 0 .08.614.877.877 0 0 0 0 1v2c0 .265.12.52.333.707.213.188.502.293.804.293h47.726c.15.003.3-.021.439-.07.14-.05.266-.123.372-.217a.98.98 0 0 0 .246-.327A.877.877 0 0 0 50 3V1c0-.265-.12-.52-.333-.707A1.22 1.22 0 0 0 48.863 0H1.137Zm0 10a1.25 1.25 0 0 0-.439.07c-.14.05-.266.123-.372.217a.98.98 0 0 0-.246.327A.877.877 0 0 0 0 11v2c0 .265.12.52.333.707.213.188.502.293.804.293h47.726c.15.003.3-.021.439-.07.14-.05.266-.123.372-.217a.98.98 0 0 0 .246-.327A.877.877 0 0 0 50 13v-2c0-.265-.12-.52-.333-.707a1.22 1.22 0 0 0-.804-.293H1.137Zm0 10c-.15-.003-.3.021-.439.07-.14.05-.266.123-.372.217a.98.98 0 0 0-.246.327A.877.877 0 0 0 0 21v2c0 .265.12.52.333.707.213.187.502.293.804.293h47.726c.15.003.3-.021.439-.07.14-.05.266-.124.372-.217a.98.98 0 0 0 .246-.327A.877.877 0 0 0 50 23v-2c0-.265-.12-.52-.333-.707a1.22 1.22 0 0 0-.804-.293H1.137Z" fill="#fff"/></symbol><symbol id="html-academy"><path d="M13.643.016 13.5 0 0 1.407v24.606L13.5 34 27 26.013V1.407L13.643.016Zm11.591 25L13.5 31.956 1.766 25.015V14.93l11.685 6.916.02 1.253-8.017-4.743-.011 1.225 8.046 4.809.02 1.286-8.045-4.758-.01 1.226L13.5 26.95l8.124-4.833V16.91l3.62-2.15-.01 10.256Zm0-11.564-3.22 1.88-1.482.875-7.065-4.187-.011 1.225 6.04 3.573-.053.031-.13.076-.86.492-4.986-2.948-.011 1.225 3.936 2.328-.933.61-.021.012-2.971-1.742-.011 1.225 1.947 1.135-1.988 1.186-11.618-6.872 11.638-6.958 11.8 6.834Zm0-1.225L13.44 5.31 1.766 12.22V2.99L13.5 1.764 25.234 2.99v9.237Z" fill="#D22856"/></symbol><symbol id="logo-footer"><path d="M71.005 18.549c0-.337.13-.66.365-.9.234-.24.552-.379.887-.387h7.133c5.057 0 8.385 2.703 8.385 7.13v.06c0 4.846-4.034 7.358-8.802 7.358h-5.435v6.801a1.282 1.282 0 0 1-.754 1.28 1.27 1.27 0 0 1-1.717-.758 1.282 1.282 0 0 1-.062-.522V18.549Zm8.067 10.968c3.706 0 6.14-1.994 6.14-4.986v-.06c0-3.21-2.395-4.875-5.961-4.875h-5.663v9.881l5.484.04ZM92.594 18.389a1.282 1.282 0 0 1 .754-1.28 1.269 1.269 0 0 1 1.717.758c.056.168.078.346.062.522v20.222a1.28 1.28 0 0 1-.754 1.28 1.27 1.27 0 0 1-1.717-.758 1.282 1.282 0 0 1-.063-.522V18.389ZM101.674 18.419a1.278 1.278 0 0 1 1.252-1.247h.347a1.535 1.535 0 0 1 1.282.738l13.601 17.4V18.36c0-.329.13-.643.361-.875a1.229 1.229 0 0 1 1.742 0c.231.232.361.546.361.874v20.292c.005.154-.021.308-.076.452a1.13 1.13 0 0 1-1.077.725h-.129a1.69 1.69 0 0 1-1.311-.778l-13.909-17.81v17.41a1.257 1.257 0 0 1-1.192 1.247 1.23 1.23 0 0 1-1.212-1.246V18.419h-.04ZM126.938 18.389a1.284 1.284 0 0 1 .755-1.28 1.267 1.267 0 0 1 1.45.306 1.287 1.287 0 0 1 .329.974v12.295l12.756-13.133c.262-.271.617-.432.994-.448.325.012.633.15.86.383.227.234.357.546.362.873a1.28 1.28 0 0 1-.418.897l-7.948 7.898 8.574 10.53c.224.26.348.593.348.937a1.309 1.309 0 0 1-1.341 1.276 1.228 1.228 0 0 1-.994-.578l-8.365-10.46-4.828 4.846v4.886a1.278 1.278 0 0 1-.37.895 1.26 1.26 0 0 1-2.154-.895V18.389h-.01Z" fill="#283645"/><path fill-rule="evenodd" clip-rule="evenodd" d="m53.892 6.586 5.038 21.145a1.418 1.418 0 0 1-.22 1.297 1.356 1.356 0 0 1-1.183.535H53.52c-.69 5.812-5.57 10.315-11.489 10.315-5.917 0-10.798-4.503-11.488-10.314h-1.965C27.887 35.442 22.953 40 16.968 40c-5.994 0-10.934-4.573-11.612-10.466H1.45a1.364 1.364 0 0 1-1.154-.536 1.418 1.418 0 0 1-.24-1.267L5.106 6.586C5.455 4.26 7.639 0 13.486 0c.388 0 .76.157 1.034.435.274.279.428.657.428 1.05 0 .395-.154.772-.428 1.051a1.45 1.45 0 0 1-1.034.435c-4.707 0-5.438 3.694-5.497 4.1L3.341 26.602h2.034c.746-5.817 5.652-10.31 11.593-10.31 5.939 0 10.843 4.488 11.593 10.3l1.998.01c.745-5.75 5.598-10.189 11.473-10.189 5.886 0 10.746 4.456 11.477 10.222v-.053h2.137l-4.639-19.51c-.068-.407-.77-4.1-5.497-4.1a1.45 1.45 0 0 1-1.033-.436 1.498 1.498 0 0 1-.428-1.05c0-.394.154-.772.428-1.05A1.45 1.45 0 0 1 45.51 0c5.848 0 8.03 4.259 8.382 6.586Zm-28.22 22.977a9.122 9.122 0 0 0-.022-2.97c-.725-4.195-4.336-7.383-8.681-7.383-4.349 0-7.961 3.192-8.683 7.391a9.114 9.114 0 0 0-.025 2.94c.66 4.273 4.308 7.541 8.707 7.541 4.392 0 8.034-3.257 8.704-7.518Zm24.942 0c.073-.461.112-.934.112-1.417 0-4.868-3.893-8.815-8.694-8.815-4.802 0-8.695 3.947-8.695 8.815 0 .482.039.956.112 1.418.669 4.194 4.257 7.397 8.583 7.397 4.325 0 7.913-3.203 8.582-7.397Z" fill="#D22856"/></symbol><symbol id="logo-mobile"><path d="M.005 1.549c0-.336.13-.66.365-.9C.604.41.922.27 1.257.262H8.39c5.057 0 8.385 2.703 8.385 7.13v.06c0 4.846-4.033 7.358-8.802 7.358H2.538v6.801a1.28 1.28 0 0 1-.754 1.28 1.269 1.269 0 0 1-1.717-.758 1.28 1.28 0 0 1-.062-.522V1.549Zm8.067 10.968c3.706 0 6.14-1.994 6.14-4.986v-.06c0-3.21-2.394-4.875-5.961-4.875H2.588v9.881l5.484.04ZM21.593 1.389a1.282 1.282 0 0 1 .755-1.28 1.268 1.268 0 0 1 1.717.758c.056.168.077.346.062.522v20.222a1.28 1.28 0 0 1-.754 1.28 1.27 1.27 0 0 1-1.717-.758 1.282 1.282 0 0 1-.063-.522V1.389ZM30.674 1.419A1.278 1.278 0 0 1 31.926.173h.348a1.535 1.535 0 0 1 1.281.737l13.6 17.4V1.36A1.239 1.239 0 0 1 48.389.122c.327 0 .64.13.871.362.231.232.36.546.36.874v20.292a1.14 1.14 0 0 1-.703 1.092 1.13 1.13 0 0 1-.449.085h-.129a1.695 1.695 0 0 1-1.311-.778L33.117 4.24v17.41a1.258 1.258 0 0 1-1.191 1.247 1.238 1.238 0 0 1-1.212-1.247V1.42h-.04ZM55.938 1.389a1.282 1.282 0 0 1 .755-1.28 1.268 1.268 0 0 1 1.717.758c.056.168.077.346.062.522v12.295L71.228.55c.262-.271.618-.432.994-.448a1.27 1.27 0 0 1 1.222 1.256 1.29 1.29 0 0 1-.418.898l-7.947 7.897 8.573 10.53c.224.26.348.593.348.937a1.312 1.312 0 0 1-.838 1.191 1.228 1.228 0 0 1-1.497-.493L63.3 11.859l-4.828 4.846v4.886a1.27 1.27 0 0 1-.78 1.17 1.259 1.259 0 0 1-1.648-.685 1.27 1.27 0 0 1-.096-.485V1.389h-.01Z" fill="#fff"/></symbol><symbol id="logo-tablet"><path fill-rule="evenodd" clip-rule="evenodd" d="m53.892 6.586 5.038 21.145a1.418 1.418 0 0 1-.22 1.297 1.356 1.356 0 0 1-1.183.535H53.52c-.69 5.812-5.57 10.315-11.489 10.315-5.917 0-10.798-4.503-11.488-10.314h-1.965C27.887 35.442 22.953 40 16.968 40c-5.994 0-10.934-4.573-11.612-10.466H1.45a1.364 1.364 0 0 1-1.154-.536 1.418 1.418 0 0 1-.24-1.267L5.106 6.586C5.455 4.26 7.639 0 13.486 0c.388 0 .76.157 1.034.435.274.279.428.657.428 1.05 0 .395-.154.772-.428 1.051a1.45 1.45 0 0 1-1.034.435c-4.707 0-5.438 3.694-5.497 4.1L3.341 26.602h2.034c.746-5.817 5.652-10.31 11.593-10.31 5.939 0 10.843 4.488 11.593 10.3l1.998.01c.745-5.75 5.598-10.189 11.473-10.189 5.886 0 10.746 4.456 11.477 10.222v-.053h2.137l-4.639-19.51c-.068-.407-.77-4.1-5.497-4.1a1.45 1.45 0 0 1-1.033-.436 1.498 1.498 0 0 1-.428-1.05c0-.394.154-.772.428-1.05A1.45 1.45 0 0 1 45.51 0c5.848 0 8.03 4.259 8.382 6.586Zm-28.22 22.977a9.122 9.122 0 0 0-.022-2.97c-.725-4.195-4.336-7.383-8.681-7.383-4.349 0-7.961 3.192-8.683 7.391a9.114 9.114 0 0 0-.025 2.94c.66 4.273 4.308 7.541 8.707 7.541 4.392 0 8.034-3.257 8.704-7.518Zm24.942 0c.073-.461.112-.934.112-1.417 0-4.868-3.893-8.815-8.694-8.815-4.802 0-8.695 3.947-8.695 8.815 0 .482.039.956.112 1.418.669 4.194 4.257 7.397 8.583 7.397 4.325 0 7.913-3.203 8.582-7.397Z" fill="#fff"/><path d="M71.005 18.549c0-.337.13-.66.365-.9.234-.24.552-.379.887-.387h7.133c5.057 0 8.385 2.703 8.385 7.13v.06c0 4.846-4.034 7.358-8.802 7.358h-5.435v6.801a1.282 1.282 0 0 1-.754 1.28 1.27 1.27 0 0 1-1.717-.758 1.282 1.282 0 0 1-.062-.522V18.549Zm8.067 10.968c3.706 0 6.14-1.994 6.14-4.986v-.06c0-3.21-2.395-4.875-5.961-4.875h-5.663v9.881l5.484.04ZM92.594 18.389a1.282 1.282 0 0 1 .754-1.28 1.269 1.269 0 0 1 1.717.758c.056.168.077.346.062.522v20.222a1.282 1.282 0 0 1-.754 1.28 1.27 1.27 0 0 1-1.717-.758 1.282 1.282 0 0 1-.063-.522V18.389ZM101.674 18.419a1.278 1.278 0 0 1 1.252-1.247h.347a1.535 1.535 0 0 1 1.282.738l13.601 17.4V18.36c0-.329.13-.643.361-.875a1.229 1.229 0 0 1 1.742 0c.231.232.361.546.361.874v20.292c.005.154-.021.308-.076.452a1.13 1.13 0 0 1-1.077.725h-.129a1.69 1.69 0 0 1-1.311-.778l-13.909-17.81v17.41a1.257 1.257 0 0 1-1.192 1.247 1.23 1.23 0 0 1-1.212-1.246V18.419h-.04ZM126.938 18.389a1.284 1.284 0 0 1 .755-1.28 1.267 1.267 0 0 1 1.45.306 1.287 1.287 0 0 1 .329.974v12.295l12.756-13.133c.262-.271.617-.432.994-.448.325.012.633.15.86.383.227.234.357.546.362.873a1.28 1.28 0 0 1-.418.897l-7.948 7.898 8.574 10.53c.224.26.348.593.348.937a1.309 1.309 0 0 1-1.341 1.276 1.228 1.228 0 0 1-.994-.578l-8.365-10.46-4.828 4.846v4.886a1.278 1.278 0 0 1-.37.895 1.26 1.26 0 0 1-2.154-.895V18.389h-.01Z" fill="#fff"/></symbol></svg>